<?xml version="1.0" standalone="no"?>
<!DOCTYPE svg PUBLIC "-//W3C//DTD SVG 20010904//EN"
 "http://www.w3.org/TR/2001/REC-SVG-20010904/DTD/svg10.dtd">
<svg version="1.0" xmlns="http://www.w3.org/2000/svg"
 width="280.000000pt" height="280.000000pt" viewBox="0 0 280.000000 280.000000"
 preserveAspectRatio="xMidYMid meet">
<metadata>
Created by potrace 1.11, written by Peter Selinger 2001-2013
</metadata>
<g transform="translate(0.000000,280.000000) scale(0.100000,-0.100000)"
fill="#000000" stroke="none">
<path d="M692 2498 l-92 -31 2 -739 3 -740 80 -33 80 -34 110 112 c61 62 204
208 319 326 l209 213 151 -153 c83 -85 227 -232 320 -327 l170 -172 83 32 83
33 -2 734 -3 734 -80 33 c-44 19 -80 34 -81 34 -2 0 -990 -1012 -1147 -1175
l-97 -100 0 643 c0 353 -3 642 -7 641 -5 -1 -50 -15 -101 -31z m1318 -780 l-1
-473 -229 235 c-126 129 -228 238 -227 242 3 9 447 468 453 468 2 0 4 -213 4
-472z"/>
<path d="M600 540 l0 -240 175 0 175 0 0 45 0 45 -135 0 -136 0 3 153 3 152
133 3 132 3 0 39 0 40 -175 0 -175 0 0 -240z"/>
<path d="M1020 640 l0 -140 135 0 135 0 0 -55 0 -55 -135 0 -135 0 0 -45 0
-45 175 0 175 0 0 140 0 140 -135 0 -136 0 3 58 3 57 133 3 132 3 0 39 0 40
-175 0 -175 0 0 -140z"/>
<path d="M1440 640 l0 -140 135 0 135 0 0 -55 0 -55 -135 0 -135 0 0 -45 0
-45 175 0 175 0 0 140 0 140 -135 0 -136 0 3 58 3 57 133 3 132 3 0 39 0 40
-175 0 -175 0 0 -140z"/>
<path d="M1860 540 l0 -240 40 0 40 0 0 100 0 100 95 0 95 0 0 -100 0 -100 40
0 40 0 0 240 0 240 -175 0 -175 0 0 -240z m268 98 l3 -58 -96 0 -95 0 0 60 0
61 93 -3 92 -3 3 -57z"/>
</g>
</svg>
